<svg width="120" height="45" viewBox="0 0 120 45" fill="none" xmlns="http://www.w3.org/2000/svg">
<path d="M54.7009 14.9644H54.6995C52.8756 14.9597 51.3957 13.4636 51.4004 11.6292C51.4029 10.7424 51.7487 9.90868 52.3749 9.28141C52.9998 8.65518 53.8282 8.31055 54.7081 8.31055C54.711 8.31055 54.7139 8.31055 54.7168 8.31055C56.5197 8.31517 57.9825 9.81173 57.9778 11.6465V12.8237C57.9778 13.1464 57.716 13.4079 57.3934 13.4079C57.0708 13.4079 56.809 13.1464 56.809 12.8237V11.645C56.8121 10.4531 55.8722 9.48211 54.7139 9.47913C54.7118 9.47913 54.7081 9.47913 54.7081 9.47913C54.1408 9.47913 53.6062 9.70192 53.2019 10.1069C52.7954 10.5144 52.5706 11.0561 52.5692 11.6322C52.5661 12.8222 53.5231 13.7928 54.7024 13.7959C55.0252 13.7967 55.2861 14.059 55.2853 14.3817C55.2845 14.7038 55.0229 14.9644 54.7009 14.9644Z" fill="black"/>
<path d="M59.9151 13.4081C59.5925 13.4081 59.3308 13.1466 59.3308 12.8238V3.87711C59.334 2.60643 58.3316 1.57131 57.0962 1.56812C56.4853 1.57048 55.9161 1.80418 55.4839 2.23754C55.0504 2.67182 54.8109 3.24933 54.8094 3.86374C54.8076 4.47785 55.0442 5.05638 55.4754 5.49282C55.9054 5.92813 56.4766 6.16872 57.0839 6.17036C57.4067 6.17119 57.6676 6.43346 57.6668 6.7562C57.666 7.07831 57.4044 7.33894 57.0824 7.33894H57.081C56.16 7.33658 55.2945 6.97262 54.6439 6.3141C53.9945 5.65671 53.6382 4.78536 53.6406 3.86066C53.6431 2.93575 54.004 2.06615 54.6568 1.41205C55.3107 0.756714 56.1847 0.391623 57.0991 0.39954C58.9791 0.404372 60.5045 1.96508 60.4995 3.87865V12.8238C60.4995 13.1466 60.2378 13.4081 59.9151 13.4081Z" fill="black"/>
<path d="M62.436 13.4078C62.1133 13.4078 61.8516 13.1462 61.8516 12.8235V8.08596C61.8466 6.17394 63.3722 4.61323 65.2522 4.6084C65.2551 4.6084 65.2582 4.6084 65.2613 4.6084C66.1788 4.6084 67.0426 4.96773 67.6945 5.62091C68.3471 6.27501 68.708 7.14471 68.7105 8.06951C68.7129 8.99422 68.3566 9.86556 67.7072 10.523C67.0566 11.1815 66.1911 11.5454 65.2701 11.5478H65.2687C64.9467 11.5478 64.6851 11.2873 64.6843 10.9651C64.6835 10.6423 64.9444 10.38 65.2672 10.3792C65.8745 10.3776 66.4457 10.137 66.8757 9.70168C67.3069 9.26524 67.5435 8.6867 67.5417 8.0726C67.5402 7.45818 67.3007 6.88068 66.8672 6.4464C66.4362 6.01458 65.866 5.77698 65.2613 5.77698C65.2592 5.77698 65.2572 5.77698 65.2551 5.77698C64.0195 5.78016 63.0171 6.81529 63.0204 8.08442V12.8235C63.0204 13.1462 62.7586 13.4078 62.436 13.4078Z" fill="black"/>
<path d="M68.3239 30.1712C67.9124 30.1712 67.5141 29.9515 67.3044 29.5643L61.0695 18.0488C60.7878 17.5607 60.3659 17.2808 59.9104 17.28C59.4589 17.2808 59.0371 17.5607 58.7554 18.0487L52.5206 29.5643C52.2161 30.1268 51.5132 30.3361 50.9508 30.0313C50.3882 29.7268 50.1791 29.024 50.4837 28.4615L56.7253 16.9334C56.7294 16.9259 56.7335 16.9184 56.7378 16.911C57.432 15.6938 58.6183 14.9659 59.9106 14.9639C61.2067 14.9659 62.393 15.6938 63.0872 16.911C63.0915 16.9184 63.0956 16.9259 63.0997 16.9334L69.3413 28.4615C69.6458 29.024 69.4367 29.7268 68.8741 30.0313C68.6989 30.1262 68.5102 30.1712 68.3239 30.1712Z" fill="black"/>
</svg>
